<svg id="Layer_1" data-name="Layer 1" xmlns="http://www.w3.org/2000/svg" viewBox="0 0 512 512"><defs><style>.cls-1{fill:#141f38;}</style></defs><title>chart-presentation-3-glyph</title><path class="cls-1" d="M243.2,179.2A12.8,12.8,0,1,0,256,192,12.81,12.81,0,0,0,243.2,179.2Z"/><path class="cls-1" d="M102.4,102.4h-64V345.6a64.19,64.19,0,0,0,64,64H243.2v54.75a25.6,25.6,0,1,0,25.6,0V409.6H409.6a64.19,64.19,0,0,0,64-64V102.4H102.4Zm312.92,90.95a12.8,12.8,0,0,1,5.73,17.18l-38.4,76.8a12.8,12.8,0,0,1-20.5,3.33l-28-28-29.55,39.39a12.8,12.8,0,0,1-20.89-.58L244,241.93l-40.93,71.62a12.8,12.8,0,0,1-20.16,2.7L154.66,288l-42.27,52.83a12.8,12.8,0,0,1-20-16l51.2-64a12.79,12.79,0,0,1,19-1.06L189.2,286.3l34.88-61a38.41,38.41,0,1,1,39.22-.59L295,272.24l27.55-36.73a12.8,12.8,0,0,1,19.29-1.37L367.69,260l30.46-60.92A12.79,12.79,0,0,1,415.32,193.35Z"/><path class="cls-1" d="M473.6,0H38.4a38.4,38.4,0,0,0,0,76.8H473.6a38.4,38.4,0,0,0,0-76.8Z"/></svg>