<svg id="Layer_1" data-name="Layer 1" xmlns="http://www.w3.org/2000/svg" viewBox="0 0 512 512"><defs><style>.cls-1{fill:#26a3f7;}.cls-2{fill:#dde5e8;}.cls-3{fill:#1d85b2;}.cls-4{fill:#f47878;}.cls-5{fill:#afc3c9;}</style></defs><title>browser-6-flat</title><path class="cls-1" d="M0,115.2V64A64,64,0,0,1,64,0H448a64,64,0,0,1,64,64v51.2Z"/><path class="cls-2" d="M512,115.2V448a64,64,0,0,1-64,64H64A64,64,0,0,1,0,448V115.2Z"/><circle class="cls-3" cx="70.4" cy="57.6" r="19.2"/><circle class="cls-3" cx="121.6" cy="57.6" r="19.2"/><circle class="cls-3" cx="172.8" cy="57.6" r="19.2"/><rect class="cls-4" x="64" y="179.2" width="128" height="115.2" rx="32" ry="32"/><path class="cls-5" d="M448,204.8a12.8,12.8,0,0,1-12.8,12.8h-192a12.8,12.8,0,0,1-12.8-12.8h0A12.8,12.8,0,0,1,243.2,192h192A12.8,12.8,0,0,1,448,204.8Z"/><path class="cls-5" d="M384,256a12.8,12.8,0,0,1-12.8,12.8h-128A12.8,12.8,0,0,1,230.4,256h0a12.8,12.8,0,0,1,12.8-12.8h128A12.8,12.8,0,0,1,384,256Z"/><rect class="cls-4" x="64" y="332.8" width="128" height="115.2" rx="32" ry="32"/><path class="cls-5" d="M448,358.4a12.8,12.8,0,0,1-12.8,12.8h-192a12.8,12.8,0,0,1-12.8-12.8h0a12.8,12.8,0,0,1,12.8-12.8h192A12.8,12.8,0,0,1,448,358.4Z"/><path class="cls-5" d="M384,409.6a12.8,12.8,0,0,1-12.8,12.8h-128a12.8,12.8,0,0,1-12.8-12.8h0a12.8,12.8,0,0,1,12.8-12.8h128A12.8,12.8,0,0,1,384,409.6Z"/></svg>